# xmcd
#
# Track frame offsets:
#	150
#	12920
#	32361
#	42807
#	63006
#	76764
#	90558
#	117114
#	134392
#	162716
#	176985
#	191403
#	203883
#	217468
#	250513
#	272772
#	285378
#	300916
#	312149
#	337622
#
# Disc length: 4729 seconds
#
# Revision: 5
# Processed by: cddbd v1.5.2PL0 Copyright (c) Steve Scherf et al.
# Submitted via: audiograbber 1.83.01
#
DISCID=06127714
DTITLE=Super Jazz Best Box - Super Jazz Best Hits
DYEAR=2006
DGENRE=Jazz
TTITLE0=Erroll Garner - Misty
TTITLE1=John Coltrane - Say It (Over And Over Again)
TTITLE2=Louis Armstrong - What A Wonderful World
TTITLE3=Diana Krall - S'Wonderful
TTITLE4=Patti Page - Tennessee Waltz
TTITLE5=Charlie Parker - Now's The Time
TTITLE6=Ramsey Lewis - The "In" Crowd
TTITLE7=Ella Fitzgerald - Too Darn Hot
TTITLE8=Bill Evans - Autumn Leaves
TTITLE9=Peggy Lee - Black Coffee
TTITLE10=Art Farmer, Benny Golson - I Remember Clifford
TTITLE11=Bill Evans and Monica Zetterlund - Monicas Vals (Waltz For Debby)
TTITLE12=Nat King Cole - Sweet Lorraine
TTITLE13=Makoto Ozone - We're All Alone
TTITLE14=John Coltrane and Johnny Hartman - My One And Only Love
TTITLE15=Sarah Vaughan - A Lover's Concerto
TTITLE16=Jimmy Smith - The Cat
TTITLE17=Dinah Washington - What A Diff'rence A Day Makes
TTITLE18=McCoy Tyner - Satin Doll
TTITLE19=Count Basie and His Orchestra - April In Paris
EXTD=YEAR: 2006
EXTT0=
EXTT1=
EXTT2=
EXTT3=
EXTT4=
EXTT5=
EXTT6=
EXTT7=
EXTT8=
EXTT9=
EXTT10=
EXTT11=
EXTT12=
EXTT13=
EXTT14=
EXTT15=
EXTT16=
EXTT17=
EXTT18=
EXTT19=
PLAYORDER=
